<mxfile host="app.diagrams.net" modified="2023-09-03T08:23:32.383Z" agent="Mozilla/5.0 (Windows NT 10.0; Win64; x64) AppleWebKit/537.36 (KHTML, like Gecko) Chrome/115.0.0.0 Safari/537.36 OPR/101.0.0.0" etag="ICzM_G-lcOnVP3fEkRVZ" version="21.7.2" type="device">
  <diagram name="Страница — 1" id="zZnaD5fOozKqOGdAS4zi">
    <mxGraphModel dx="789" dy="542" grid="1" gridSize="10" guides="1" tooltips="1" connect="1" arrows="1" fold="1" page="1" pageScale="1" pageWidth="827" pageHeight="1169" math="0" shadow="0">
      <root>
        <mxCell id="0" />
        <mxCell id="1" parent="0" />
        <mxCell id="ibMJWfcVv6k3tUkmRZ9H-1" value="" style="rounded=0;whiteSpace=wrap;html=1;" vertex="1" parent="1">
          <mxGeometry x="170" y="70" width="520" height="460" as="geometry" />
        </mxCell>
        <mxCell id="ibMJWfcVv6k3tUkmRZ9H-2" value="Система радоты сервис-деска" style="text;html=1;strokeColor=none;fillColor=none;align=center;verticalAlign=middle;whiteSpace=wrap;rounded=0;" vertex="1" parent="1">
          <mxGeometry x="180" y="70" width="190" height="30" as="geometry" />
        </mxCell>
        <mxCell id="ibMJWfcVv6k3tUkmRZ9H-3" value="Заявление об ошибке" style="ellipse;whiteSpace=wrap;html=1;" vertex="1" parent="1">
          <mxGeometry x="350" y="150" width="153" height="50" as="geometry" />
        </mxCell>
        <mxCell id="ibMJWfcVv6k3tUkmRZ9H-4" value="Пользователь" style="shape=umlActor;verticalLabelPosition=bottom;verticalAlign=top;html=1;outlineConnect=0;" vertex="1" parent="1">
          <mxGeometry x="620" y="270" width="30" height="60" as="geometry" />
        </mxCell>
        <mxCell id="ibMJWfcVv6k3tUkmRZ9H-6" value="" style="endArrow=none;html=1;rounded=0;exitX=1;exitY=0.5;exitDx=0;exitDy=0;" edge="1" parent="1" source="ibMJWfcVv6k3tUkmRZ9H-3" target="ibMJWfcVv6k3tUkmRZ9H-4">
          <mxGeometry width="50" height="50" relative="1" as="geometry">
            <mxPoint x="410" y="350" as="sourcePoint" />
            <mxPoint x="460" y="300" as="targetPoint" />
          </mxGeometry>
        </mxCell>
        <mxCell id="ibMJWfcVv6k3tUkmRZ9H-7" value="Администрация" style="shape=umlActor;verticalLabelPosition=bottom;verticalAlign=top;html=1;outlineConnect=0;" vertex="1" parent="1">
          <mxGeometry x="210" y="270" width="30" height="60" as="geometry" />
        </mxCell>
        <mxCell id="ibMJWfcVv6k3tUkmRZ9H-8" value="Рассмотрение заявления" style="ellipse;whiteSpace=wrap;html=1;" vertex="1" parent="1">
          <mxGeometry x="348.5" y="220" width="163" height="50" as="geometry" />
        </mxCell>
        <mxCell id="ibMJWfcVv6k3tUkmRZ9H-9" value="" style="endArrow=none;html=1;rounded=0;entryX=0.011;entryY=0.683;entryDx=0;entryDy=0;entryPerimeter=0;" edge="1" parent="1" source="ibMJWfcVv6k3tUkmRZ9H-7" target="ibMJWfcVv6k3tUkmRZ9H-8">
          <mxGeometry width="50" height="50" relative="1" as="geometry">
            <mxPoint x="290" y="300" as="sourcePoint" />
            <mxPoint x="340" y="250" as="targetPoint" />
          </mxGeometry>
        </mxCell>
        <mxCell id="ibMJWfcVv6k3tUkmRZ9H-10" value="Обнаружение инцидента" style="ellipse;whiteSpace=wrap;html=1;" vertex="1" parent="1">
          <mxGeometry x="348.5" y="290" width="163" height="50" as="geometry" />
        </mxCell>
        <mxCell id="ibMJWfcVv6k3tUkmRZ9H-12" value="" style="endArrow=none;html=1;rounded=0;exitX=1;exitY=0.3333333333333333;exitDx=0;exitDy=0;exitPerimeter=0;entryX=0.036;entryY=0.623;entryDx=0;entryDy=0;entryPerimeter=0;" edge="1" parent="1" source="ibMJWfcVv6k3tUkmRZ9H-7" target="ibMJWfcVv6k3tUkmRZ9H-10">
          <mxGeometry width="50" height="50" relative="1" as="geometry">
            <mxPoint x="290" y="320" as="sourcePoint" />
            <mxPoint x="340" y="270" as="targetPoint" />
          </mxGeometry>
        </mxCell>
        <mxCell id="ibMJWfcVv6k3tUkmRZ9H-13" value="" style="endArrow=none;html=1;rounded=0;exitX=1;exitY=0.5;exitDx=0;exitDy=0;" edge="1" parent="1" source="ibMJWfcVv6k3tUkmRZ9H-10" target="ibMJWfcVv6k3tUkmRZ9H-4">
          <mxGeometry width="50" height="50" relative="1" as="geometry">
            <mxPoint x="510" y="300" as="sourcePoint" />
            <mxPoint x="560" y="250" as="targetPoint" />
          </mxGeometry>
        </mxCell>
        <mxCell id="ibMJWfcVv6k3tUkmRZ9H-14" value="Занесение инцидента в базу знаний" style="ellipse;whiteSpace=wrap;html=1;" vertex="1" parent="1">
          <mxGeometry x="340" y="350" width="180" height="70" as="geometry" />
        </mxCell>
        <mxCell id="ibMJWfcVv6k3tUkmRZ9H-15" value="" style="endArrow=none;html=1;rounded=0;exitX=1;exitY=0.3333333333333333;exitDx=0;exitDy=0;exitPerimeter=0;entryX=0;entryY=0.5;entryDx=0;entryDy=0;" edge="1" parent="1" source="ibMJWfcVv6k3tUkmRZ9H-7" target="ibMJWfcVv6k3tUkmRZ9H-14">
          <mxGeometry width="50" height="50" relative="1" as="geometry">
            <mxPoint x="270" y="400" as="sourcePoint" />
            <mxPoint x="320" y="350" as="targetPoint" />
          </mxGeometry>
        </mxCell>
        <mxCell id="ibMJWfcVv6k3tUkmRZ9H-16" value="Комментарии о неисправностях" style="ellipse;whiteSpace=wrap;html=1;" vertex="1" parent="1">
          <mxGeometry x="345" y="90" width="163" height="50" as="geometry" />
        </mxCell>
        <mxCell id="ibMJWfcVv6k3tUkmRZ9H-18" value="" style="endArrow=none;html=1;rounded=0;exitX=0.5;exitY=0;exitDx=0;exitDy=0;exitPerimeter=0;entryX=1.017;entryY=0.6;entryDx=0;entryDy=0;entryPerimeter=0;" edge="1" parent="1" source="ibMJWfcVv6k3tUkmRZ9H-4" target="ibMJWfcVv6k3tUkmRZ9H-16">
          <mxGeometry width="50" height="50" relative="1" as="geometry">
            <mxPoint x="590" y="190" as="sourcePoint" />
            <mxPoint x="640" y="140" as="targetPoint" />
          </mxGeometry>
        </mxCell>
        <mxCell id="ibMJWfcVv6k3tUkmRZ9H-19" value="" style="endArrow=none;html=1;rounded=0;exitX=1;exitY=0.3333333333333333;exitDx=0;exitDy=0;exitPerimeter=0;entryX=-0.008;entryY=0.686;entryDx=0;entryDy=0;entryPerimeter=0;" edge="1" parent="1" source="ibMJWfcVv6k3tUkmRZ9H-7" target="ibMJWfcVv6k3tUkmRZ9H-16">
          <mxGeometry width="50" height="50" relative="1" as="geometry">
            <mxPoint x="250" y="240" as="sourcePoint" />
            <mxPoint x="300" y="190" as="targetPoint" />
          </mxGeometry>
        </mxCell>
        <mxCell id="ibMJWfcVv6k3tUkmRZ9H-20" value="Доклад об инциденте" style="ellipse;whiteSpace=wrap;html=1;" vertex="1" parent="1">
          <mxGeometry x="350" y="450" width="163" height="50" as="geometry" />
        </mxCell>
        <mxCell id="ibMJWfcVv6k3tUkmRZ9H-21" value="" style="endArrow=none;html=1;rounded=0;exitX=1;exitY=0.3333333333333333;exitDx=0;exitDy=0;exitPerimeter=0;entryX=0;entryY=0.5;entryDx=0;entryDy=0;" edge="1" parent="1" source="ibMJWfcVv6k3tUkmRZ9H-7" target="ibMJWfcVv6k3tUkmRZ9H-20">
          <mxGeometry width="50" height="50" relative="1" as="geometry">
            <mxPoint x="250" y="490" as="sourcePoint" />
            <mxPoint x="300" y="440" as="targetPoint" />
          </mxGeometry>
        </mxCell>
      </root>
    </mxGraphModel>
  </diagram>
</mxfile>
